# xmcd
#
# Track frame offsets: 
#        150
#        12193
#        24413
#        33896
#        45363
#        53030
#        63730
#        73560
#        87558
#        100253
#        110611
#        124317
#        136183
#        146975
#        158705
#        167036
#        178827
#        187779
#        202111
#        211121
#        221236
#        233481
#        243430
#        253061
#        265964
#        276805
#
# Disc length: 3865 seconds
#
# Revision: 2
# Processed by: cddbd v1.5.1PL2 Copyright (c) Steve Scherf et al.
# Submitted via: ExactAudioCopy v0.90b4
#
DISCID=7d0f171a
DTITLE=Various Artist - As good as it gets - Bluegrass CD 1 of 2
DYEAR=1900
DGENRE=
TTITLE0=Bill Monroe and His Bluegrass Boys - Footprints in the snow
TTITLE1=Lester Flatt, Earl Scruggs and the Foggy Mountain Boys - We'll 
TTITLE1=meet again sweetheart
TTITLE2=Jim and Jesse - Air mail special
TTITLE3=Hylo Brown and The Timberliners - Gathering flowers from the hil
TTITLE3=lside
TTITLE4=The Green River Boys feat. Glen Campbell - Kentucky means para
TTITLE4=dise
TTITLE5=The Louvin Brothers - The last shovel
TTITLE6=The Cumberland Mountain Boys - Cumberland breakdown
TTITLE7=The Stanley Brothers - The little glass of wine
TTITLE8=Mac Wiseman - Sing little birdie
TTITLE9=Rose Maddox - Roll in my sweet baby's arms
TTITLE10=Bill Monroe and His Bluegrass Boys - Blue moon of Kentucky
TTITLE11=Lester Flatt, Earl Scruggs and the Foggy Mountain Boys - I'm go
TTITLE11=ing to make heaven my home
TTITLE12=Jim and Jesse - Is it true
TTITLE13=Hylo Brown and The Timberliners - Stone wall
TTITLE14=The Green River Boys feat. Glen Campbell - Divorce me C.O.D.
TTITLE15=Jimmie Skinner - Station door blues
TTITLE16=The Cumberland Mountain Boys - Stop beating around the bush
TTITLE17=Bill Monroe and His Bluegrass Boys - Little cabin home on the h
TTITLE17=ill
TTITLE18=Rose Maddox - Uncle Pen 
TTITLE19=Jim and Jesse I will always be waiting for you
TTITLE20=Hylo Brown and The Timberliners - Why do you weep dear willow
TTITLE21=The Stanley Brothers - Our darling's gone
TTITLE22=The Cumberland Mountain Boys - Hittin' on five
TTITLE23=Bill Monroe - That home above
TTITLE24=Jim and Jesse - Are you missing me
TTITLE25=Rose Maddox - Each season changes you
EXTD=
EXTT0=
EXTT1=
EXTT2=
EXTT3=
EXTT4=
EXTT5=
EXTT6=
EXTT7=
EXTT8=
EXTT9=
EXTT10=
EXTT11=
EXTT12=
EXTT13=
EXTT14=
EXTT15=
EXTT16=
EXTT17=
EXTT18=
EXTT19=
EXTT20=
EXTT21=
EXTT22=
EXTT23=
EXTT24=
EXTT25=
PLAYORDER=
